<svg id="Layer_1" data-name="Layer 1" xmlns="http://www.w3.org/2000/svg" viewBox="0 0 100.02 100"><defs><style>.cls-1{fill:#bebebe;}</style></defs><title>search</title><path class="cls-1" d="M51.71.57A41.08,41.08,0,0,1,87.79,12.24a40.8,40.8,0,0,1,12,32.87C98.71,64.37,82.25,81.47,63,83.08c-7.38,1-14.66-.91-21.66-3-3.71,1.26-6.42,4.43-9.67,6.53-5.66,3.85-11,8.18-16.63,12S.61,97.93.09,91.16A10.48,10.48,0,0,1,2.3,83.47c5.55-7.74,11.43-15.24,17-23,1.47-1.7,0-3.79-.39-5.61a43.62,43.62,0,0,1-.24-26.25C23.52,14.26,36.52,2.63,51.71.57Zm1.21,12.49C39.05,15.44,28.18,29.12,29.34,43.23A29,29,0,0,0,50.45,69.68c10.34,2.87,22.35-.27,29.37-8.56,7.34-7.63,9.53-19.45,6-29.34C81.23,18.65,66.58,10.17,52.92,13.06Z" transform="translate(0 0)"/></svg>